<?xml version="1.0" encoding="UTF-8" standalone="no" ?>
<!DOCTYPE svg PUBLIC "-//W3C//DTD SVG 1.1//EN" "http://www.w3.org/Graphics/SVG/1.1/DTD/svg11.dtd">
<svg xmlns="http://www.w3.org/2000/svg" xmlns:xlink="http://www.w3.org/1999/xlink" version="1.1" width="1024" height="1024" viewBox="0 0 1024 1024" xml:space="preserve">
<desc>Created with Fabric.js 2.4.6</desc>
<defs>
</defs>
<rect x="0" y="0" width="100%" height="100%" fill="rgb(255,255,255)"></rect>
<g transform="matrix(1.57 0 0 1 512 512)" id="background-logo"  >
<rect style="stroke: none; stroke-width: 1; stroke-dasharray: none; stroke-linecap: butt; stroke-dashoffset: 0; stroke-linejoin: miter; stroke-miterlimit: 10; fill: rgb(255,255,255); fill-rule: nonzero; opacity: 1;"  x="-325.5" y="-512" rx="0" ry="0" width="651" height="1024" />
</g>
<g transform="matrix(0.98 0 0 0.98 183.59 422.43)" style="" id="logo-logo"  >
	<g transform="matrix(0.28 0 0 -0.28 31.22 -35.66)" id="logo-logo"  >
<linearGradient id="SVGID_188215" gradientUnits="userSpaceOnUse" gradientTransform="matrix(-541.234 254.049 290.293 618.45 1607.6 7187.3)"  x1="0.015010299999545253" y1="0" x2="0.9999999999995453" y2="0">
<stop offset="0%" style="stop-color:rgb(150,221,239);stop-opacity: 1"/>
<stop offset="64.65570000000001%" style="stop-color:rgb(76,180,229);stop-opacity: 1"/>
<stop offset="74.04132%" style="stop-color:rgb(76,180,229);stop-opacity: 1"/>
<stop offset="100%" style="stop-color:rgb(61,101,185);stop-opacity: 1"/>
</linearGradient>
<path style="stroke: none; stroke-width: 1; stroke-dasharray: none; stroke-linecap: butt; stroke-dashoffset: 0; stroke-linejoin: miter; stroke-miterlimit: 10; fill: url(#SVGID_188215); fill-rule: nonzero; opacity: 1;"  transform=" translate(-1442.46, -7543.73)" d="m 1492.26 7881.32 c 100.33 12.8 187.12 4.91 236.54 -35.28 c 38.74 -31.47 64.53 -87.68 79.88 -157.32 c 15.45 -312.95 -110.3 -455.6 -182.14 -488.22 c 113.39 195.73 22.17 493.96 -47.72 537.45 c -239.86 17.78 -430.99 -112.1 -503.41 -263.09 c -12.68 239.62 229.56 366.89 416.85 406.46" stroke-linecap="round" />
</g>
	<g transform="matrix(0.28 0 0 -0.28 -46.18 -19.85)" id="logo-logo"  >
<linearGradient id="SVGID_188216" gradientUnits="userSpaceOnUse" gradientTransform="matrix(-347.936 -833.938 -497.12 207.409 1520.48 7897.05)"  x1="0.0150103" y1="0" x2="1" y2="0">
<stop offset="0%" style="stop-color:rgb(150,221,239);stop-opacity: 1"/>
<stop offset="64.65570000000001%" style="stop-color:rgb(76,180,229);stop-opacity: 1"/>
<stop offset="74.04132%" style="stop-color:rgb(76,180,229);stop-opacity: 1"/>
<stop offset="100%" style="stop-color:rgb(61,101,185);stop-opacity: 1"/>
</linearGradient>
<path style="stroke: none; stroke-width: 1; stroke-dasharray: none; stroke-linecap: butt; stroke-dashoffset: 0; stroke-linejoin: miter; stroke-miterlimit: 10; fill: url(#SVGID_188216); fill-rule: nonzero; opacity: 1;"  transform=" translate(-1163.04, -7486.65)" d="m 899.328 7334.99 c -74.875 96.11 -92.605 198.27 -16.047 282.02 c 96.567 105.54 386.229 235.92 608.979 264.31 c -420.15 -145.11 -540.237 -575.37 -350.23 -789.35 c -89.36 68.64 -169.604 149.16 -242.702 243.02" stroke-linecap="round" />
</g>
	<g transform="matrix(0.28 0 0 -0.28 68.81 27.46)" id="logo-logo"  >
<linearGradient id="SVGID_188217" gradientUnits="userSpaceOnUse" gradientTransform="matrix(441.822 408.686 351.935 -380.47 1341.71 7306.03)"  x1="0.0150103" y1="-1.8189894035458565e-12" x2="1" y2="-1.8189894035458565e-12">
<stop offset="0%" style="stop-color:rgb(150,221,239);stop-opacity: 1"/>
<stop offset="64.65570000000001%" style="stop-color:rgb(76,180,229);stop-opacity: 1"/>
<stop offset="74.04132%" style="stop-color:rgb(76,180,229);stop-opacity: 1"/>
<stop offset="100%" style="stop-color:rgb(61,101,185);stop-opacity: 1"/>
</linearGradient>
<path style="stroke: none; stroke-width: 1; stroke-dasharray: none; stroke-linecap: butt; stroke-dashoffset: 0; stroke-linejoin: miter; stroke-miterlimit: 10; fill: url(#SVGID_188217); fill-rule: nonzero; opacity: 1;"  transform=" translate(-1578.15, -7315.87)" d="m 1808.68 7688.72 c 34.07 -154.39 22.26 -531.96 -85.32 -663.52 c -150.82 -184.44 -460.23 -40.81 -379.5 255.56 c -4.13 -147.21 129.64 -188.61 243.46 -112.44 c 107.17 71.72 214.75 276.76 221.36 520.4" stroke-linecap="round" />
</g>
	<g transform="matrix(0.28 0 0 -0.28 6.89 23.29)" id="logo-logo"  >
<linearGradient id="SVGID_188218" gradientUnits="userSpaceOnUse" gradientTransform="matrix(-44.1851 -679.258 -432.202 28.1143 1588.35 7652.02)"  x1="0.0150103" y1="0" x2="1" y2="0">
<stop offset="0%" style="stop-color:rgb(150,221,239);stop-opacity: 1"/>
<stop offset="64.65570000000001%" style="stop-color:rgb(76,180,229);stop-opacity: 1"/>
<stop offset="74.04132%" style="stop-color:rgb(76,180,229);stop-opacity: 1"/>
<stop offset="100%" style="stop-color:rgb(61,101,185);stop-opacity: 1"/>
</linearGradient>
<path style="stroke: none; stroke-width: 1; stroke-dasharray: none; stroke-linecap: butt; stroke-dashoffset: 0; stroke-linejoin: miter; stroke-miterlimit: 10; fill: url(#SVGID_188218); fill-rule: nonzero; opacity: 1;"  transform=" translate(-1354.63, -7330.9)" d="m 1537.18 7600.86 c -15.88 -30.93 -31.79 -61.86 -47.7 -92.82 c 8.27 -57.45 16.57 -114.94 24.86 -172.4 c -20.2 -25.4 -40.4 -50.75 -60.6 -76.12 c -15.01 47.64 -30.02 95.25 -45.04 142.89 c -59.12 -53.05 -133.35 -246.51 8.62 -409.35 c -188.12 100.89 -224.88 296.53 -111.13 473.05 c -51.78 1.03 -91.94 1.83 -143.73 2.87 c 7.79 8.9 64.86 76.14 77.5 89.33 c 18.13 1.33 127.4 12.69 148.63 14.23 c 11.94 11.88 64.51 59.08 77.89 72.26 c 49.2 48.41 102.54 18.19 70.7 -43.94" stroke-linecap="round" />
</g>
</g>
<g transform="matrix(1.57 0 0 1.57 664.42 438.15)"  >
<path style="stroke: none; stroke-width: 1; stroke-dasharray: none; stroke-linecap: butt; stroke-dashoffset: 0; stroke-linejoin: miter; stroke-miterlimit: 10; fill: rgb(91,188,231); fill-rule: nonzero; opacity: ;"  transform=" translate(-160.75, 79.82)" d="M 4.56 -48.98 L 4.56 -48.98 L 4.56 -159.64 L 41.53 -159.64 L 41.53 -48.98 Q 41.53 -43.97 45.03 -40.36 Q 48.54 -36.74 53.55 -36.74 L 53.55 -36.74 L 90.51 -36.74 L 90.51 0 L 53.55 0 Q 43.31 0 34.4 -3.9 Q 25.49 -7.79 18.93 -14.36 Q 12.36 -20.93 8.46 -29.84 Q 4.56 -38.74 4.56 -48.98 Z M 111.55 -122.68 L 74.59 -122.68 L 74.59 -159.64 L 185.14 -159.64 L 185.14 -122.68 L 148.18 -122.68 L 148.18 0 L 111.55 0 L 111.55 -122.68 Z M 231.01 0 L 194.27 0 L 194.27 -159.64 L 231.01 -159.64 L 267.86 -159.64 Q 278.1 -159.64 287 -155.75 Q 295.91 -151.85 302.53 -145.23 Q 309.16 -138.6 313.05 -129.7 Q 316.95 -120.79 316.95 -110.55 L 316.95 -110.55 Q 316.95 -101.87 314.11 -94.02 Q 311.27 -86.17 306.26 -79.82 L 306.26 -79.82 Q 311.27 -73.48 314.11 -65.57 Q 316.95 -57.67 316.95 -48.98 L 316.95 -48.98 Q 316.95 -38.74 313.05 -29.84 Q 309.16 -20.93 302.53 -14.36 Q 295.91 -7.79 287.06 -3.9 Q 278.21 0 267.86 0 L 267.86 0 L 231.01 0 Z M 231.01 -61.34 L 231.01 -36.74 L 267.86 -36.74 Q 273.09 -36.74 276.65 -40.36 Q 280.21 -43.97 280.21 -48.98 L 280.21 -48.98 Q 280.21 -54.22 276.71 -57.78 Q 273.2 -61.34 267.86 -61.34 L 267.86 -61.34 L 231.01 -61.34 Z M 231.01 -122.68 L 231.01 -98.3 L 267.86 -98.3 Q 273.09 -98.3 276.65 -101.81 Q 280.21 -105.32 280.21 -110.55 L 280.21 -110.55 Q 280.21 -115.56 276.71 -119.12 Q 273.2 -122.68 267.86 -122.68 L 267.86 -122.68 L 231.01 -122.68 Z" stroke-linecap="round" />
</g>
<g transform="matrix(1.57 0 0 1.57 728.84 588.99)"  >
<path style="stroke: none; stroke-width: 1; stroke-dasharray: none; stroke-linecap: butt; stroke-dashoffset: 0; stroke-linejoin: miter; stroke-miterlimit: 4; fill: rgb(91,188,231); fill-rule: nonzero; opacity: ;"  transform=" translate(-92.86, 12.96)" d="M 6.7 0 L 0.74 0 L 7.66 -25.91 L 7.73 -25.91 L 13.66 -25.91 L 13.73 -25.91 L 20.65 0 L 14.69 0 L 10.7 -14.87 L 6.7 0 Z M 21.01 -7.95 L 21.01 -7.95 L 21.01 -17.94 Q 21.01 -19.6 21.64 -21.05 Q 22.28 -22.49 23.34 -23.57 Q 24.41 -24.64 25.85 -25.27 Q 27.3 -25.91 28.96 -25.91 L 28.96 -25.91 L 40.92 -25.91 L 40.92 -19.91 L 28.96 -19.91 Q 28.11 -19.91 27.54 -19.33 Q 26.97 -18.75 26.97 -17.94 L 26.97 -17.94 L 26.97 -15.95 L 40.92 -15.95 L 40.92 -9.95 L 26.97 -9.95 L 26.97 -7.95 Q 26.97 -7.14 27.54 -6.55 Q 28.11 -5.96 28.96 -5.96 L 28.96 -5.96 L 40.92 -5.96 L 40.92 0 L 28.96 0 Q 27.3 0 25.85 -0.63 Q 24.41 -1.26 23.34 -2.33 Q 22.28 -3.4 21.64 -4.84 Q 21.01 -6.29 21.01 -7.95 Z M 48.35 0 L 42.38 0 L 42.38 -25.91 L 48.35 -25.91 L 54.33 -25.91 Q 55.99 -25.91 57.43 -25.27 Q 58.88 -24.64 59.95 -23.57 Q 61.03 -22.49 61.66 -21.05 Q 62.29 -19.6 62.29 -17.94 L 62.29 -17.94 Q 62.29 -16.53 61.83 -15.26 Q 61.37 -13.98 60.56 -12.95 L 60.56 -12.95 Q 61.37 -11.92 61.83 -10.64 Q 62.29 -9.36 62.29 -7.95 L 62.29 -7.95 L 62.29 0 L 56.33 0 L 56.33 -7.95 Q 56.33 -8.8 55.76 -9.38 Q 55.19 -9.95 54.33 -9.95 L 54.33 -9.95 L 48.35 -9.95 L 48.35 0 Z M 48.35 -19.91 L 48.35 -15.95 L 54.33 -15.95 Q 55.17 -15.95 55.75 -16.52 Q 56.33 -17.09 56.33 -17.94 L 56.33 -17.94 Q 56.33 -18.75 55.76 -19.33 Q 55.19 -19.91 54.33 -19.91 L 54.33 -19.91 L 48.35 -19.91 Z M 63.76 -7.95 L 63.76 -7.95 L 63.76 -17.94 Q 63.76 -19.6 64.39 -21.05 Q 65.02 -22.49 66.09 -23.57 Q 67.15 -24.64 68.6 -25.27 Q 70.04 -25.91 71.71 -25.91 L 71.71 -25.91 L 75.7 -25.91 Q 77.36 -25.91 78.81 -25.27 Q 80.25 -24.64 81.33 -23.57 Q 82.4 -22.49 83.03 -21.05 Q 83.67 -19.6 83.67 -17.94 L 83.67 -17.94 L 83.67 -7.95 Q 83.67 -6.29 83.03 -4.84 Q 82.4 -3.4 81.33 -2.33 Q 80.25 -1.26 78.81 -0.63 Q 77.38 0 75.7 0 L 75.7 0 L 71.71 0 Q 70.04 0 68.6 -0.63 Q 67.15 -1.26 66.09 -2.33 Q 65.02 -3.4 64.39 -4.84 Q 63.76 -6.29 63.76 -7.95 Z M 69.72 -17.94 L 69.72 -7.95 Q 69.72 -7.14 70.29 -6.55 Q 70.86 -5.96 71.71 -5.96 L 71.71 -5.96 L 75.7 -5.96 Q 76.55 -5.96 77.13 -6.55 Q 77.7 -7.14 77.7 -7.95 L 77.7 -7.95 L 77.7 -17.94 Q 77.7 -18.75 77.13 -19.33 Q 76.57 -19.91 75.7 -19.91 L 75.7 -19.91 L 71.71 -19.91 Q 70.86 -19.91 70.29 -19.33 Q 69.72 -18.75 69.72 -17.94 L 69.72 -17.94 Z M 97.07 0 L 85.13 0 L 85.13 -5.96 L 97.07 -5.96 Q 97.92 -6 98.5 -6.57 Q 99.08 -7.14 99.08 -7.95 L 99.08 -7.95 Q 99.08 -8.8 98.51 -9.38 Q 97.94 -9.95 97.07 -9.95 L 97.07 -9.95 L 93.08 -9.95 Q 91.42 -9.95 89.97 -10.59 Q 88.53 -11.22 87.46 -12.3 Q 86.39 -13.39 85.76 -14.83 Q 85.13 -16.28 85.13 -17.94 L 85.13 -17.94 Q 85.13 -19.6 85.76 -21.05 Q 86.39 -22.49 87.46 -23.57 Q 88.53 -24.64 89.97 -25.27 Q 91.42 -25.91 93.08 -25.91 L 93.08 -25.91 L 101.05 -25.91 L 101.05 -19.91 L 93.08 -19.91 Q 92.23 -19.91 91.66 -19.33 Q 91.09 -18.75 91.09 -17.94 L 91.09 -17.94 Q 91.09 -17.09 91.66 -16.52 Q 92.23 -15.95 93.08 -15.95 L 93.08 -15.95 L 97.07 -15.95 Q 98.73 -15.95 100.18 -15.32 Q 101.62 -14.69 102.7 -13.59 Q 103.77 -12.5 104.41 -11.06 Q 105.04 -9.61 105.04 -7.95 L 105.04 -7.95 Q 105.04 -6.29 104.41 -4.84 Q 103.77 -3.4 102.7 -2.33 Q 101.62 -1.26 100.19 -0.63 Q 98.75 0 97.07 0 L 97.07 0 Z M 112.46 0 L 106.5 0 L 106.5 -25.91 L 112.46 -25.91 L 118.44 -25.91 Q 120.11 -25.91 121.55 -25.27 Q 123 -24.64 124.07 -23.57 Q 125.15 -22.49 125.78 -21.05 Q 126.41 -19.6 126.41 -17.94 L 126.41 -17.94 Q 126.41 -16.28 125.78 -14.83 Q 125.15 -13.39 124.07 -12.3 Q 123 -11.22 121.56 -10.59 Q 120.12 -9.95 118.44 -9.95 L 118.44 -9.95 L 112.46 -9.95 L 112.46 0 Z M 112.46 -19.91 L 112.46 -15.95 L 118.44 -15.95 Q 119.29 -15.95 119.87 -16.52 Q 120.45 -17.09 120.45 -17.94 L 120.45 -17.94 Q 120.45 -18.75 119.88 -19.33 Q 119.31 -19.91 118.44 -19.91 L 118.44 -19.91 L 112.46 -19.91 Z M 129.39 0 L 123.43 0 L 130.35 -25.91 L 130.42 -25.91 L 136.35 -25.91 L 136.42 -25.91 L 143.34 0 L 137.38 0 L 133.38 -14.87 L 129.39 0 Z M 143.7 -7.95 L 143.7 -7.95 L 143.7 -17.94 Q 143.7 -19.6 144.33 -21.05 Q 144.96 -22.49 146.03 -23.57 Q 147.1 -24.64 148.54 -25.27 Q 149.99 -25.91 151.65 -25.91 L 151.65 -25.91 L 155.64 -25.91 Q 157.3 -25.91 158.75 -25.27 Q 160.19 -24.64 161.27 -23.57 Q 162.34 -22.49 162.98 -21.05 Q 163.61 -19.6 163.61 -17.94 L 163.61 -17.94 L 157.65 -17.94 Q 157.65 -18.75 157.08 -19.33 Q 156.51 -19.91 155.64 -19.91 L 155.64 -19.91 L 151.65 -19.91 Q 150.8 -19.91 150.23 -19.33 Q 149.66 -18.75 149.66 -17.94 L 149.66 -17.94 L 149.66 -7.95 Q 149.66 -7.14 150.23 -6.55 Q 150.8 -5.96 151.65 -5.96 L 151.65 -5.96 L 155.64 -5.96 Q 156.49 -5.96 157.07 -6.55 Q 157.65 -7.14 157.65 -7.95 L 157.65 -7.95 L 163.61 -7.95 Q 163.61 -6.29 162.98 -4.84 Q 162.34 -3.4 161.27 -2.33 Q 160.19 -1.26 158.76 -0.63 Q 157.32 0 155.64 0 L 155.64 0 L 151.65 0 Q 149.99 0 148.54 -0.63 Q 147.1 -1.26 146.03 -2.33 Q 144.96 -3.4 144.33 -4.84 Q 143.7 -6.29 143.7 -7.95 Z M 165.07 -7.95 L 165.07 -7.95 L 165.07 -17.94 Q 165.07 -19.6 165.71 -21.05 Q 166.34 -22.49 167.4 -23.57 Q 168.47 -24.64 169.91 -25.27 Q 171.36 -25.91 173.02 -25.91 L 173.02 -25.91 L 184.98 -25.91 L 184.98 -19.91 L 173.02 -19.91 Q 172.17 -19.91 171.6 -19.33 Q 171.03 -18.75 171.03 -17.94 L 171.03 -17.94 L 171.03 -15.95 L 184.98 -15.95 L 184.98 -9.95 L 171.03 -9.95 L 171.03 -7.95 Q 171.03 -7.14 171.6 -6.55 Q 172.17 -5.96 173.02 -5.96 L 173.02 -5.96 L 184.98 -5.96 L 184.98 0 L 173.02 0 Q 171.36 0 169.91 -0.63 Q 168.47 -1.26 167.4 -2.33 Q 166.34 -3.4 165.71 -4.84 Q 165.07 -6.29 165.07 -7.95 Z" stroke-linecap="round" />
</g>
</svg>