<?xml version="1.0" standalone="no"?>
<!DOCTYPE svg PUBLIC "-//W3C//DTD SVG 20010904//EN"
 "http://www.w3.org/TR/2001/REC-SVG-20010904/DTD/svg10.dtd">
<svg version="1.0" xmlns="http://www.w3.org/2000/svg"
 width="1024.000000pt" height="1024.000000pt" viewBox="0 0 1024.000000 1024.000000"
 preserveAspectRatio="xMidYMid meet">
<metadata>
Created by potrace 1.14, written by Peter Selinger 2001-2017
</metadata>
<g transform="translate(0.000000,1024.000000) scale(0.100000,-0.100000)"
fill="#000000" stroke="none">
<path d="M7265 9953 c-27 -1 -143 -12 -258 -23 -193 -19 -216 -24 -330 -64
-158 -56 -331 -126 -542 -219 -1101 -483 -2047 -1220 -2735 -2131 -82 -109
-305 -438 -330 -486 -7 -14 -22 -35 -33 -47 -11 -13 -18 -23 -14 -23 4 0 -12
-33 -36 -72 -23 -40 -51 -90 -62 -111 -18 -35 -21 -36 -33 -20 -13 17 -14 16
-8 -4 4 -12 2 -24 -4 -28 -5 -3 -10 -11 -10 -16 0 -6 5 -7 10 -4 6 3 -2 -18
-17 -49 -15 -30 -31 -52 -35 -50 -4 2 -11 -4 -17 -13 -9 -16 -10 -16 -11 5 0
13 4 21 9 17 6 -3 9 3 9 12 0 10 3 27 7 37 6 14 5 17 -3 12 -14 -9 -15 -1 -3
23 8 14 5 17 -22 18 -18 0 -23 -1 -11 -4 17 -3 21 -11 20 -34 -1 -16 -6 -29
-11 -29 -22 0 -75 22 -75 31 0 5 -18 9 -40 9 -29 0 -40 4 -40 15 0 11 -11 15
-40 15 -27 0 -40 4 -40 14 0 17 -54 40 -75 32 -9 -3 -23 3 -32 14 -10 11 -25
20 -35 20 -10 0 -18 5 -18 10 0 6 -18 10 -40 10 -33 0 -40 3 -40 20 0 17 -7
20 -39 20 -25 0 -41 5 -44 14 -3 8 -40 25 -81 38 -42 13 -76 28 -76 35 0 8
-14 13 -40 13 -22 0 -40 5 -40 10 0 6 -18 10 -40 10 -33 0 -40 3 -40 20 0 17
-7 20 -40 20 -22 0 -40 5 -40 10 0 6 -7 10 -15 10 -8 0 -15 4 -15 9 0 13 -57
31 -96 31 -27 0 -34 4 -34 20 0 17 -7 20 -40 20 -22 0 -40 5 -40 10 0 6 -6 10
-14 10 -7 0 -19 6 -25 14 -7 8 -24 17 -39 21 -39 9 -82 29 -82 37 0 5 -18 8
-40 8 -22 0 -40 -4 -40 -10 0 -5 -8 -10 -17 -10 -17 1 -17 1 -1 14 27 20 22
33 -18 41 -24 4 -38 13 -41 26 -4 15 -14 19 -48 19 -27 0 -51 7 -68 20 -14 11
-30 20 -36 20 -6 0 -11 5 -11 10 0 6 -18 10 -40 10 -22 0 -40 5 -40 10 0 6
-18 10 -40 10 -22 0 -40 5 -40 10 0 6 -8 14 -18 17 -9 4 -27 14 -40 24 -13 10
-30 15 -38 12 -8 -3 -14 0 -14 6 0 6 5 10 11 8 6 -1 14 5 16 13 4 12 3 12 -5
2 -8 -11 -10 -11 -15 1 -3 9 1 18 9 21 9 3 12 11 9 17 -9 13 -35 -20 -28 -36
2 -7 -3 -18 -12 -25 -12 -10 -18 -11 -28 -1 -9 10 -8 11 4 6 19 -7 35 10 19
20 -5 3 -10 1 -10 -5 0 -6 -4 -9 -9 -5 -5 3 -50 -34 -100 -82 -50 -49 -91 -86
-91 -83 -1 3 -7 -6 -15 -20 -7 -14 -17 -25 -22 -25 -4 0 -7 -6 -5 -13 2 -7 -1
-11 -5 -10 -14 5 -83 -65 -81 -81 2 -9 -2 -15 -9 -14 -13 3 -99 -95 -95 -108
1 -5 -3 -9 -8 -9 -17 0 -145 -204 -199 -315 -60 -123 -113 -277 -141 -410 -27
-129 -38 -398 -21 -545 56 -483 282 -968 701 -1501 380 -483 694 -835 1149
-1289 409 -409 681 -653 1076 -969 99 -79 188 -151 198 -159 32 -28 17 -5 -49
74 -420 505 -684 1138 -787 1888 -19 141 -22 206 -22 526 0 390 8 487 61 800
56 326 125 573 201 718 445 850 1220 1578 2178 2047 707 346 1449 532 2276
571 137 6 146 8 141 26 -2 10 3 27 13 38 10 11 15 26 11 35 -3 9 3 23 14 32
11 10 20 22 20 27 0 5 20 51 45 102 25 50 45 95 45 98 0 13 51 115 60 121 6 3
10 17 10 31 0 13 4 24 10 24 5 0 12 11 16 25 3 14 10 25 15 25 5 0 9 7 9 16 0
20 30 85 48 103 7 8 11 23 8 34 -3 13 4 29 23 46 28 27 65 106 56 120 -2 5 4
20 15 34 11 14 20 30 20 36 0 6 5 11 10 11 6 0 10 11 10 24 0 13 7 29 15 36 8
7 13 16 10 20 -3 4 4 19 15 33 11 14 20 30 20 36 0 6 5 11 10 11 6 0 10 18 10
40 0 22 3 40 8 40 7 0 25 30 38 63 3 9 13 17 20 17 10 0 14 14 14 51 0 42 5
56 25 75 32 30 32 44 -2 45 -27 1 -26 1 5 9 18 4 35 10 38 12 5 6 -487 7 -561
1z m472 -19 c-3 -3 -12 -4 -19 -1 -8 3 -5 6 6 6 11 1 17 -2 13 -5z m-140 -276
c-3 -8 -6 -5 -6 6 -1 11 2 17 5 13 3 -3 4 -12 1 -19z m-187 -443 c0 -8 -7 -15
-15 -15 -9 0 -12 6 -9 15 4 8 10 15 15 15 5 0 9 -7 9 -15z m-30 -166 c0 -5 -4
-9 -10 -9 -5 0 -10 7 -10 16 0 8 5 12 10 9 6 -3 10 -10 10 -16z m-6580 -1603
c0 -2 -8 -10 -17 -17 -16 -13 -17 -12 -4 4 13 16 21 21 21 13z m-42 -59 c-7
-12 -11 -25 -10 -29 1 -5 -7 -8 -18 -8 -22 0 -27 15 -8 26 7 5 8 3 3 -6 -6 -9
-4 -11 4 -6 7 5 10 14 7 21 -5 15 13 37 26 29 4 -3 3 -15 -4 -27z m37 3 c3 -5
1 -10 -4 -10 -6 0 -11 5 -11 10 0 6 2 10 4 10 3 0 8 -4 11 -10z m-84 -74 c-12
-14 -46 -15 -58 -1 -5 4 -3 5 3 2 7 -4 14 2 17 14 5 18 9 19 27 9 16 -8 19
-15 11 -24z m-104 -88 c2 -17 0 -19 -7 -8 -5 8 -6 18 -4 22 8 12 10 10 11 -14z
m593 -38 c0 -5 -4 -10 -9 -10 -6 0 -13 5 -16 10 -3 6 1 10 9 10 9 0 16 -4 16
-10z m107 -76 c-3 -3 -12 -4 -19 -1 -8 3 -5 6 6 6 11 1 17 -2 13 -5z m400
-160 c-3 -3 -12 -4 -19 -1 -8 3 -5 6 6 6 11 1 17 -2 13 -5z m633 -255 c0 -5
-4 -9 -10 -9 -5 0 -10 7 -10 16 0 8 5 12 10 9 6 -3 10 -10 10 -16z m427 -216
c-9 -10 -17 -12 -17 -6 0 6 6 13 12 15 9 3 8 9 -4 21 -21 22 -32 22 -24 1 5
-14 4 -15 -9 -4 -18 15 -20 35 -3 24 8 -5 9 -1 4 12 -5 13 4 8 26 -13 31 -31
32 -34 15 -50z m26 57 c-3 -12 -8 -19 -11 -16 -5 6 5 36 12 36 2 0 2 -9 -1
-20z"/>
<path d="M680 7330 c0 -13 18 -22 24 -11 3 5 -1 11 -9 15 -8 3 -15 1 -15 -4z"/>
<path d="M7825 9940 c-13 -5 2 -7 40 -4 43 3 54 2 40 -5 -22 -11 -6 -15 20 -5
13 5 14 8 3 15 -16 11 -77 10 -103 -1z"/>
<path d="M7983 9943 c9 -2 15 -9 12 -14 -3 -5 1 -6 10 -2 13 5 14 7 3 14 -7 5
-20 8 -28 8 -11 -1 -10 -3 3 -6z"/>
<path d="M7660 9455 c-10 -12 -10 -15 4 -15 9 0 16 7 16 15 0 8 -2 15 -4 15
-2 0 -9 -7 -16 -15z"/>
<path d="M7591 9294 c0 -11 3 -14 6 -6 3 7 2 16 -1 19 -3 4 -6 -2 -5 -13z"/>
<path d="M7203 8473 c9 -2 25 -2 35 0 9 3 1 5 -18 5 -19 0 -27 -2 -17 -5z"/>
<path d="M7293 8473 c9 -2 23 -2 30 0 6 3 -1 5 -18 5 -16 0 -22 -2 -12 -5z"/>
<path d="M10061 7887 c-14 -442 -85 -1048 -177 -1506 -114 -566 -325 -1244
-521 -1671 -41 -89 -42 -94 -27 -120 7 -14 13 -32 13 -40 0 -8 -7 1 -16 20
-10 24 -17 30 -21 20 -2 -8 -16 -37 -29 -64 -14 -27 -19 -45 -11 -40 7 4 3 -4
-10 -18 -21 -23 -22 -65 -1 -52 5 3 9 -13 9 -36 0 -36 -2 -41 -19 -35 -19 6
-39 -11 -26 -23 3 -3 10 0 15 8 7 10 10 11 10 3 0 -23 19 -14 26 12 3 14 10
25 14 25 12 0 40 -29 40 -41 0 -5 7 -9 15 -9 8 0 15 -6 15 -14 0 -8 9 -17 19
-21 11 -3 23 -15 26 -26 4 -10 13 -19 21 -19 8 0 14 -6 14 -14 0 -8 9 -17 19
-21 11 -3 23 -15 26 -26 4 -10 13 -19 21 -19 8 0 14 -8 14 -17 0 -10 30 -47
65 -82 36 -35 65 -72 65 -81 0 -10 7 -20 15 -24 8 -3 15 -12 15 -21 0 -8 9
-15 20 -15 12 0 20 -7 20 -16 0 -9 9 -18 20 -21 11 -3 20 -14 20 -24 0 -12 7
-19 20 -19 12 0 20 -7 20 -16 0 -9 9 -18 20 -21 11 -3 20 -14 20 -24 0 -12 7
-19 20 -19 12 0 20 -7 20 -16 0 -9 9 -18 20 -21 11 -3 20 -14 20 -24 0 -12 7
-19 20 -19 12 0 20 -7 20 -16 0 -9 9 -18 19 -21 11 -3 25 -19 30 -35 14 -39
14 -91 1 -83 -6 4 -5 -6 2 -22 14 -33 34 -58 24 -29 -3 10 -2 24 2 30 8 10 21
91 26 156 1 14 5 30 9 37 4 6 9 35 11 65 2 29 7 60 9 68 7 21 43 315 66 550
81 804 95 1837 35 2580 -27 341 -91 818 -123 925 l-9 30 -1 -28z m-781 -3447
c0 -5 -4 -10 -10 -10 -5 0 -10 5 -10 10 0 6 5 10 10 10 6 0 10 -4 10 -10z
m774 -776 c3 -8 2 -12 -4 -9 -6 3 -10 10 -10 16 0 14 7 11 14 -7z m-37 -26
c-3 -8 -6 -5 -6 6 -1 11 2 17 5 13 3 -3 4 -12 1 -19z m13 -125 c-11 -17 -11
-17 -6 0 3 10 7 42 8 70 l2 52 3 -52 c2 -29 -1 -61 -7 -70z"/>
<path d="M1185 7761 c-3 -5 -2 -12 3 -15 5 -3 9 1 9 9 0 17 -3 19 -12 6z"/>
<path d="M1155 7740 c-4 -6 -1 -9 7 -8 7 2 12 -3 10 -10 -1 -8 2 -11 8 -7 8 5
7 11 -1 21 -14 17 -16 17 -24 4z"/>
<path d="M1100 7686 c6 -6 18 -5 32 1 21 10 21 10 -9 9 -19 -1 -28 -5 -23 -10z"/>
<path d="M1045 7654 c-10 -8 -15 -17 -12 -21 4 -3 7 -3 7 2 0 4 7 2 15 -5 10
-9 15 -9 15 -1 0 14 10 14 30 1 13 -9 13 -11 0 -20 -9 -6 -10 -10 -3 -10 22 0
26 23 7 36 -10 7 -24 17 -30 22 -6 6 -18 4 -29 -4z"/>
<path d="M1005 7619 c-10 -15 3 -25 16 -12 7 7 7 13 1 17 -6 3 -14 1 -17 -5z"/>
<path d="M907 7547 c-17 -26 -19 -25 39 -18 6 0 11 8 11 16 0 8 -3 13 -5 10
-3 -3 -11 0 -17 5 -9 7 -17 4 -28 -13z m27 4 c3 -5 -1 -11 -9 -14 -9 -4 -12
-1 -8 9 6 16 10 17 17 5z"/>
<path d="M1120 7450 c0 -6 7 -10 15 -10 8 0 15 2 15 4 0 2 -7 6 -15 10 -8 3
-15 1 -15 -4z"/>
<path d="M1600 7239 c0 -5 5 -7 10 -4 6 3 10 8 10 11 0 2 -4 4 -10 4 -5 0 -10
-5 -10 -11z"/>
<path d="M1760 7190 c0 -5 4 -10 9 -10 6 0 13 5 16 10 3 6 -1 10 -9 10 -9 0
-16 -4 -16 -10z"/>
<path d="M2080 7050 c0 -6 7 -10 15 -10 8 0 15 2 15 4 0 2 -7 6 -15 10 -8 3
-15 1 -15 -4z"/>
<path d="M2218 6953 c7 -3 16 -2 19 1 4 3 -2 6 -13 5 -11 0 -14 -3 -6 -6z"/>
<path d="M2975 6949 c-4 -6 -5 -12 -2 -15 2 -3 7 2 10 11 7 17 1 20 -8 4z"/>
<path d="M2480 6890 c0 -6 7 -10 15 -10 8 0 15 2 15 4 0 2 -7 6 -15 10 -8 3
-15 1 -15 -4z"/>
<path d="M2901 6824 c0 -11 3 -14 6 -6 3 7 2 16 -1 19 -3 4 -6 -2 -5 -13z"/>
<path d="M2880 6806 c0 -2 8 -10 18 -17 15 -13 16 -12 3 4 -13 16 -21 21 -21
13z"/>
<path d="M2720 6790 c0 -5 4 -10 9 -10 6 0 13 5 16 10 3 6 -1 10 -9 10 -9 0
-16 -4 -16 -10z"/>
<path d="M2840 6705 c-7 -9 -8 -15 -2 -15 5 0 12 7 16 15 3 8 4 15 2 15 -2 0
-9 -7 -16 -15z"/>
<path d="M2832 6650 c-9 -15 -9 -21 1 -26 6 -4 9 -4 5 1 -4 4 -3 14 4 22 6 7
9 15 7 18 -3 2 -10 -4 -17 -15z"/>
<path d="M9220 4395 c-6 -15 -13 -32 -16 -36 -3 -5 -1 -9 5 -9 5 0 14 12 19
28 9 24 10 25 11 5 1 -13 6 -23 11 -23 15 0 12 36 -5 50 -12 10 -16 8 -25 -15z"/>
<path d="M4305 4230 c-4 -22 -12 -46 -18 -53 -14 -14 -15 -20 -28 -100 -5 -32
-7 -62 -4 -67 3 -5 1 -11 -4 -14 -4 -3 -14 -70 -21 -148 -16 -180 -8 -550 15
-698 104 -667 376 -1201 854 -1681 182 -182 336 -311 526 -441 111 -76 281
-180 356 -218 40 -21 40 -20 -41 77 -267 323 -475 699 -604 1088 -115 351
-163 685 -153 1065 6 229 24 386 69 600 17 80 32 152 33 160 1 8 5 22 8 30 10
25 40 134 42 150 1 8 7 25 13 37 14 26 15 36 3 29 -5 -4 -7 3 -4 14 3 11 0 20
-6 20 -6 0 -11 -9 -11 -20 0 -14 -5 -18 -17 -13 -13 5 -15 2 -11 -15 4 -13 2
-20 -4 -16 -5 3 -6 20 -3 36 5 21 4 28 -4 24 -6 -4 -11 0 -11 8 0 14 -20 16
-137 17 -76 0 -294 10 -484 22 l-346 22 -23 -30 c-12 -16 -20 -22 -16 -12 3
10 6 23 6 28 0 6 4 8 8 5 8 -5 36 123 28 131 -2 2 -7 -14 -11 -37z m12 -142
c-3 -8 -6 -5 -6 6 -1 11 2 17 5 13 3 -3 4 -12 1 -19z m-20 -45 c-3 -10 -5 -4
-5 12 0 17 2 24 5 18 2 -7 2 -21 0 -30z m20 -5 c-3 -7 -5 -2 -5 12 0 14 2 19
5 13 2 -7 2 -19 0 -25z"/>
<path d="M6969 4253 c-13 -16 -12 -17 4 -4 9 7 17 15 17 17 0 8 -8 3 -21 -13z"/>
<path d="M6901 4226 c-8 -10 -9 -16 -1 -21 5 -3 10 -5 11 -3 4 18 7 38 4 38
-1 0 -8 -6 -14 -14z"/>
<path d="M9136 4224 c-4 -9 -4 -19 -1 -22 2 -3 7 3 11 12 4 9 4 19 1 22 -2 3
-7 -3 -11 -12z"/>
<path d="M9345 4230 c3 -5 8 -10 11 -10 2 0 4 5 4 10 0 6 -5 10 -11 10 -5 0
-7 -4 -4 -10z"/>
<path d="M6200 4221 c0 -6 4 -13 10 -16 6 -3 7 1 4 9 -7 18 -14 21 -14 7z"/>
<path d="M5405 4210 c3 -5 8 -10 11 -10 2 0 4 5 4 10 0 6 -5 10 -11 10 -5 0
-7 -4 -4 -10z"/>
<path d="M6200 4180 c6 -11 13 -20 16 -20 2 0 0 9 -6 20 -6 11 -13 20 -16 20
-2 0 0 -9 6 -20z"/>
<path d="M5369 4173 c-6 -45 -5 -112 2 -102 4 8 6 25 3 39 -5 20 -3 22 6 10 9
-12 10 -10 5 9 -4 13 -3 21 2 18 5 -3 10 3 10 14 2 17 -26 29 -28 12z"/>
<path d="M5158 4163 c23 -2 61 -2 85 0 23 2 4 4 -43 4 -47 0 -66 -2 -42 -4z"/>
<path d="M6800 4154 c0 -1 6 -7 14 -13 10 -9 15 -8 19 2 3 8 -3 13 -14 13 -11
0 -19 -1 -19 -2z"/>
<path d="M6855 4150 c3 -5 1 -10 -6 -10 -8 0 -9 -3 0 -13 6 -8 7 -18 3 -22 -4
-5 -2 -5 5 -1 7 4 9 14 6 23 -4 10 -2 14 5 9 6 -3 14 -1 18 5 4 8 3 9 -4 5 -7
-4 -12 -2 -12 3 0 6 -5 11 -11 11 -5 0 -7 -4 -4 -10z"/>
<path d="M6831 4107 c-1 -10 -5 -15 -11 -12 -10 6 -14 -7 -10 -35 1 -11 -3 -9
-13 4 -14 19 -15 19 -26 -1 -9 -19 -8 -20 12 -16 15 4 19 2 12 -5 -5 -5 -19
-12 -30 -14 -13 -2 -20 -11 -19 -26 1 -29 -13 -29 -19 1 l-4 22 -2 -22 c-1
-24 -15 -30 -26 -13 -3 6 -52 10 -111 10 -63 0 -104 4 -104 10 0 6 -33 10 -80
10 -69 0 -80 2 -80 18 0 9 -4 23 -8 30 -5 7 -8 -12 -7 -45 1 -32 0 -52 -3 -44
-4 11 -6 11 -14 0 -7 -10 -8 -7 -4 9 3 12 8 32 12 45 l5 22 -19 -22 c-17 -19
-21 -20 -26 -7 -10 25 -7 41 5 24 8 -13 10 -12 7 4 -2 11 -10 20 -20 22 -13 2
-15 -3 -8 -27 5 -15 12 -34 16 -41 9 -13 10 -18 12 -51 1 -10 6 -16 11 -13 5
3 12 -1 15 -10 3 -8 2 -13 -3 -10 -5 4 -5 -8 -1 -27 14 -54 32 -111 38 -122 4
-5 7 -14 8 -20 4 -25 58 -201 64 -208 4 -4 20 9 35 30 16 21 44 55 62 76 19
22 31 43 27 50 -4 7 -4 9 1 5 4 -4 14 -3 22 3 15 13 18 33 4 24 -5 -3 -12 -1
-16 4 -3 6 3 8 14 6 28 -5 124 116 116 147 -5 19 1 26 35 40 22 10 40 20 40
24 0 3 -6 2 -12 -2 -7 -3 1 6 17 21 17 14 24 24 18 20 -8 -4 -13 0 -13 10 0 9
5 13 11 10 21 -14 86 71 75 98 -2 7 -5 4 -5 -6z m-514 -179 c-3 -7 -5 -2 -5
12 0 14 2 19 5 13 2 -7 2 -19 0 -25z m-10 -50 c-3 -8 -6 -5 -6 6 -1 11 2 17 5
13 3 -3 4 -12 1 -19z m288 -47 c3 -5 2 -12 -3 -15 -5 -3 -9 1 -9 9 0 17 3 19
12 6z"/>
<path d="M6418 4083 c12 -2 32 -2 45 0 12 2 2 4 -23 4 -25 0 -35 -2 -22 -4z"/>
<path d="M6730 4060 c0 -11 5 -20 11 -20 6 0 9 6 6 14 -3 8 -1 17 6 20 7 2 4
5 -5 5 -12 1 -18 -6 -18 -19z"/>
<path d="M9520 4015 c0 -8 7 -15 16 -15 14 0 14 3 4 15 -7 8 -14 15 -16 15 -2
0 -4 -7 -4 -15z"/>
<path d="M6680 3910 c-8 -5 -11 -12 -8 -16 4 -3 14 1 23 10 18 17 9 21 -15 6z"/>
<path d="M10006 3445 c-9 -26 -7 -32 5 -12 6 10 9 21 6 23 -2 3 -7 -2 -11 -11z"/>
<path d="M10011 3394 c0 -11 3 -14 6 -6 3 7 2 16 -1 19 -3 4 -6 -2 -5 -13z"/>
</g>
</svg>
